<mxfile host="app.diagrams.net" modified="2023-01-24T00:10:14.317Z" agent="5.0 (Windows NT 10.0; Win64; x64) AppleWebKit/537.36 (KHTML, like Gecko) Chrome/109.0.0.0 Safari/537.36" etag="l3x35LH87avD79BGrvFI" version="20.8.10" type="github">
  <diagram name="Page-1" id="VEC0rwPOXxM0msd8uJXU">
    <mxGraphModel dx="1050" dy="581" grid="1" gridSize="10" guides="1" tooltips="1" connect="1" arrows="1" fold="1" page="1" pageScale="1" pageWidth="850" pageHeight="1100" math="0" shadow="0">
      <root>
        <mxCell id="0" />
        <mxCell id="1" parent="0" />
        <mxCell id="UvH31Jiv-H99-9G_gPSF-5" style="edgeStyle=orthogonalEdgeStyle;rounded=0;orthogonalLoop=1;jettySize=auto;html=1;exitX=0.5;exitY=1;exitDx=0;exitDy=0;entryX=0.403;entryY=0.037;entryDx=0;entryDy=0;entryPerimeter=0;" edge="1" parent="1" source="UvH31Jiv-H99-9G_gPSF-1" target="UvH31Jiv-H99-9G_gPSF-4">
          <mxGeometry relative="1" as="geometry" />
        </mxCell>
        <mxCell id="UvH31Jiv-H99-9G_gPSF-1" value="PUSH" style="rounded=0;whiteSpace=wrap;html=1;fillColor=#d5e8d4;strokeColor=#82b366;" vertex="1" parent="1">
          <mxGeometry x="300" y="30" width="120" height="50" as="geometry" />
        </mxCell>
        <mxCell id="UvH31Jiv-H99-9G_gPSF-9" value="" style="edgeStyle=orthogonalEdgeStyle;rounded=0;orthogonalLoop=1;jettySize=auto;html=1;" edge="1" parent="1" source="UvH31Jiv-H99-9G_gPSF-4" target="UvH31Jiv-H99-9G_gPSF-8">
          <mxGeometry relative="1" as="geometry" />
        </mxCell>
        <mxCell id="UvH31Jiv-H99-9G_gPSF-4" value="BUILD" style="rounded=0;whiteSpace=wrap;html=1;fillColor=#dae8fc;strokeColor=#6c8ebf;" vertex="1" parent="1">
          <mxGeometry x="40" y="130" width="120" height="60" as="geometry" />
        </mxCell>
        <mxCell id="UvH31Jiv-H99-9G_gPSF-6" value="FAILURE MESSAGE IN SLACK" style="whiteSpace=wrap;html=1;aspect=fixed;fillColor=#d80073;strokeColor=#A50040;fontColor=#ffffff;" vertex="1" parent="1">
          <mxGeometry x="520" y="190" width="80" height="80" as="geometry" />
        </mxCell>
        <mxCell id="UvH31Jiv-H99-9G_gPSF-17" style="edgeStyle=orthogonalEdgeStyle;rounded=0;orthogonalLoop=1;jettySize=auto;html=1;exitX=1;exitY=0.5;exitDx=0;exitDy=0;entryX=0;entryY=0.5;entryDx=0;entryDy=0;" edge="1" parent="1" source="UvH31Jiv-H99-9G_gPSF-7" target="UvH31Jiv-H99-9G_gPSF-15">
          <mxGeometry relative="1" as="geometry" />
        </mxCell>
        <mxCell id="UvH31Jiv-H99-9G_gPSF-7" value="TESTS" style="rounded=0;whiteSpace=wrap;html=1;fillColor=#dae8fc;strokeColor=#6c8ebf;" vertex="1" parent="1">
          <mxGeometry x="40" y="250" width="120" height="60" as="geometry" />
        </mxCell>
        <mxCell id="UvH31Jiv-H99-9G_gPSF-11" style="edgeStyle=orthogonalEdgeStyle;rounded=0;orthogonalLoop=1;jettySize=auto;html=1;exitX=1;exitY=0.5;exitDx=0;exitDy=0;entryX=0.05;entryY=0.638;entryDx=0;entryDy=0;entryPerimeter=0;" edge="1" parent="1" source="UvH31Jiv-H99-9G_gPSF-8" target="UvH31Jiv-H99-9G_gPSF-6">
          <mxGeometry relative="1" as="geometry" />
        </mxCell>
        <mxCell id="UvH31Jiv-H99-9G_gPSF-12" value="NO" style="edgeLabel;html=1;align=center;verticalAlign=middle;resizable=0;points=[];" vertex="1" connectable="0" parent="UvH31Jiv-H99-9G_gPSF-11">
          <mxGeometry x="-0.8514" y="10" relative="1" as="geometry">
            <mxPoint as="offset" />
          </mxGeometry>
        </mxCell>
        <mxCell id="UvH31Jiv-H99-9G_gPSF-13" style="edgeStyle=orthogonalEdgeStyle;rounded=0;orthogonalLoop=1;jettySize=auto;html=1;exitX=0.5;exitY=1;exitDx=0;exitDy=0;entryX=0.5;entryY=0;entryDx=0;entryDy=0;" edge="1" parent="1" source="UvH31Jiv-H99-9G_gPSF-8" target="UvH31Jiv-H99-9G_gPSF-7">
          <mxGeometry relative="1" as="geometry" />
        </mxCell>
        <mxCell id="UvH31Jiv-H99-9G_gPSF-14" value="YES" style="edgeLabel;html=1;align=center;verticalAlign=middle;resizable=0;points=[];" vertex="1" connectable="0" parent="UvH31Jiv-H99-9G_gPSF-13">
          <mxGeometry x="-0.665" y="-6" relative="1" as="geometry">
            <mxPoint as="offset" />
          </mxGeometry>
        </mxCell>
        <mxCell id="UvH31Jiv-H99-9G_gPSF-8" value="PASS" style="rhombus;whiteSpace=wrap;html=1;fillColor=#fff2cc;strokeColor=#d6b656;" vertex="1" parent="1">
          <mxGeometry x="250" y="130" width="80" height="80" as="geometry" />
        </mxCell>
        <mxCell id="UvH31Jiv-H99-9G_gPSF-18" style="edgeStyle=orthogonalEdgeStyle;rounded=0;orthogonalLoop=1;jettySize=auto;html=1;exitX=1;exitY=0.5;exitDx=0;exitDy=0;entryX=0;entryY=0.25;entryDx=0;entryDy=0;" edge="1" parent="1" source="UvH31Jiv-H99-9G_gPSF-15" target="UvH31Jiv-H99-9G_gPSF-6">
          <mxGeometry relative="1" as="geometry" />
        </mxCell>
        <mxCell id="UvH31Jiv-H99-9G_gPSF-21" value="NO" style="edgeLabel;html=1;align=center;verticalAlign=middle;resizable=0;points=[];" vertex="1" connectable="0" parent="UvH31Jiv-H99-9G_gPSF-18">
          <mxGeometry x="-0.866" y="10" relative="1" as="geometry">
            <mxPoint as="offset" />
          </mxGeometry>
        </mxCell>
        <mxCell id="UvH31Jiv-H99-9G_gPSF-20" style="edgeStyle=orthogonalEdgeStyle;rounded=0;orthogonalLoop=1;jettySize=auto;html=1;exitX=0.5;exitY=1;exitDx=0;exitDy=0;entryX=1;entryY=0.5;entryDx=0;entryDy=0;" edge="1" parent="1" source="UvH31Jiv-H99-9G_gPSF-15" target="UvH31Jiv-H99-9G_gPSF-19">
          <mxGeometry relative="1" as="geometry" />
        </mxCell>
        <mxCell id="UvH31Jiv-H99-9G_gPSF-22" value="YES" style="edgeLabel;html=1;align=center;verticalAlign=middle;resizable=0;points=[];" vertex="1" connectable="0" parent="UvH31Jiv-H99-9G_gPSF-20">
          <mxGeometry x="0.0027" y="-8" relative="1" as="geometry">
            <mxPoint as="offset" />
          </mxGeometry>
        </mxCell>
        <mxCell id="UvH31Jiv-H99-9G_gPSF-15" value="PASS" style="rhombus;whiteSpace=wrap;html=1;fillColor=#fff2cc;strokeColor=#d6b656;" vertex="1" parent="1">
          <mxGeometry x="220" y="250" width="80" height="80" as="geometry" />
        </mxCell>
        <mxCell id="UvH31Jiv-H99-9G_gPSF-27" style="edgeStyle=orthogonalEdgeStyle;rounded=0;orthogonalLoop=1;jettySize=auto;html=1;exitX=0.5;exitY=1;exitDx=0;exitDy=0;" edge="1" parent="1" source="UvH31Jiv-H99-9G_gPSF-19" target="UvH31Jiv-H99-9G_gPSF-26">
          <mxGeometry relative="1" as="geometry" />
        </mxCell>
        <mxCell id="UvH31Jiv-H99-9G_gPSF-19" value="ANALYSE" style="rounded=0;whiteSpace=wrap;html=1;fillColor=#dae8fc;strokeColor=#6c8ebf;" vertex="1" parent="1">
          <mxGeometry x="40" y="350" width="120" height="60" as="geometry" />
        </mxCell>
        <mxCell id="UvH31Jiv-H99-9G_gPSF-43" style="edgeStyle=orthogonalEdgeStyle;rounded=0;orthogonalLoop=1;jettySize=auto;html=1;exitX=0.5;exitY=0;exitDx=0;exitDy=0;entryX=0;entryY=0.5;entryDx=0;entryDy=0;" edge="1" parent="1" source="UvH31Jiv-H99-9G_gPSF-24" target="UvH31Jiv-H99-9G_gPSF-41">
          <mxGeometry relative="1" as="geometry" />
        </mxCell>
        <mxCell id="UvH31Jiv-H99-9G_gPSF-24" value="DEPLOY" style="whiteSpace=wrap;html=1;fillColor=#dae8fc;strokeColor=#6c8ebf;rounded=0;" vertex="1" parent="1">
          <mxGeometry x="340" y="530" width="120" height="60" as="geometry" />
        </mxCell>
        <mxCell id="UvH31Jiv-H99-9G_gPSF-29" style="edgeStyle=orthogonalEdgeStyle;rounded=0;orthogonalLoop=1;jettySize=auto;html=1;exitX=1;exitY=0;exitDx=0;exitDy=0;" edge="1" parent="1" source="UvH31Jiv-H99-9G_gPSF-26" target="UvH31Jiv-H99-9G_gPSF-6">
          <mxGeometry relative="1" as="geometry">
            <Array as="points">
              <mxPoint x="570" y="520" />
            </Array>
          </mxGeometry>
        </mxCell>
        <mxCell id="UvH31Jiv-H99-9G_gPSF-30" value="NO" style="edgeLabel;html=1;align=center;verticalAlign=middle;resizable=0;points=[];" vertex="1" connectable="0" parent="UvH31Jiv-H99-9G_gPSF-29">
          <mxGeometry x="-0.8859" y="6" relative="1" as="geometry">
            <mxPoint as="offset" />
          </mxGeometry>
        </mxCell>
        <mxCell id="UvH31Jiv-H99-9G_gPSF-48" style="edgeStyle=orthogonalEdgeStyle;rounded=0;orthogonalLoop=1;jettySize=auto;html=1;exitX=1;exitY=0.5;exitDx=0;exitDy=0;entryX=-0.005;entryY=0.858;entryDx=0;entryDy=0;entryPerimeter=0;" edge="1" parent="1" source="UvH31Jiv-H99-9G_gPSF-26" target="UvH31Jiv-H99-9G_gPSF-6">
          <mxGeometry relative="1" as="geometry" />
        </mxCell>
        <mxCell id="UvH31Jiv-H99-9G_gPSF-49" value="NO" style="edgeLabel;html=1;align=center;verticalAlign=middle;resizable=0;points=[];" vertex="1" connectable="0" parent="UvH31Jiv-H99-9G_gPSF-48">
          <mxGeometry x="-0.8917" y="1" relative="1" as="geometry">
            <mxPoint as="offset" />
          </mxGeometry>
        </mxCell>
        <mxCell id="UvH31Jiv-H99-9G_gPSF-50" style="edgeStyle=orthogonalEdgeStyle;rounded=0;orthogonalLoop=1;jettySize=auto;html=1;exitX=1;exitY=1;exitDx=0;exitDy=0;entryX=0.5;entryY=1;entryDx=0;entryDy=0;" edge="1" parent="1" source="UvH31Jiv-H99-9G_gPSF-26" target="UvH31Jiv-H99-9G_gPSF-24">
          <mxGeometry relative="1" as="geometry" />
        </mxCell>
        <mxCell id="UvH31Jiv-H99-9G_gPSF-51" value="YES" style="edgeLabel;html=1;align=center;verticalAlign=middle;resizable=0;points=[];" vertex="1" connectable="0" parent="UvH31Jiv-H99-9G_gPSF-50">
          <mxGeometry x="0.1074" y="8" relative="1" as="geometry">
            <mxPoint as="offset" />
          </mxGeometry>
        </mxCell>
        <mxCell id="UvH31Jiv-H99-9G_gPSF-26" value="PASS" style="rhombus;whiteSpace=wrap;html=1;fillColor=#fff2cc;strokeColor=#d6b656;" vertex="1" parent="1">
          <mxGeometry x="60" y="500" width="80" height="80" as="geometry" />
        </mxCell>
        <mxCell id="UvH31Jiv-H99-9G_gPSF-32" value="SUCCESS MESSAGE IN SLACK" style="whiteSpace=wrap;html=1;aspect=fixed;fillColor=#60a917;fontColor=#ffffff;strokeColor=#2D7600;" vertex="1" parent="1">
          <mxGeometry x="320" y="190" width="80" height="80" as="geometry" />
        </mxCell>
        <mxCell id="UvH31Jiv-H99-9G_gPSF-53" style="edgeStyle=orthogonalEdgeStyle;rounded=0;orthogonalLoop=1;jettySize=auto;html=1;exitX=0.5;exitY=0;exitDx=0;exitDy=0;entryX=0.5;entryY=1;entryDx=0;entryDy=0;" edge="1" parent="1" source="UvH31Jiv-H99-9G_gPSF-34" target="UvH31Jiv-H99-9G_gPSF-52">
          <mxGeometry relative="1" as="geometry" />
        </mxCell>
        <mxCell id="UvH31Jiv-H99-9G_gPSF-34" value="SMOKE TEST" style="ellipse;whiteSpace=wrap;html=1;aspect=fixed;fillColor=#1ba1e2;fontColor=#ffffff;strokeColor=#006EAF;" vertex="1" parent="1">
          <mxGeometry x="650" y="510" width="80" height="80" as="geometry" />
        </mxCell>
        <mxCell id="UvH31Jiv-H99-9G_gPSF-36" value="ROLLBACK&lt;br&gt;(REVERT&amp;nbsp;&lt;br&gt;MIGRATION)" style="whiteSpace=wrap;html=1;aspect=fixed;fillColor=#d80073;fontColor=#ffffff;strokeColor=#A50040;" vertex="1" parent="1">
          <mxGeometry x="470" y="300" width="80" height="80" as="geometry" />
        </mxCell>
        <mxCell id="UvH31Jiv-H99-9G_gPSF-44" style="edgeStyle=orthogonalEdgeStyle;rounded=0;orthogonalLoop=1;jettySize=auto;html=1;exitX=0.5;exitY=0;exitDx=0;exitDy=0;entryX=0.5;entryY=1;entryDx=0;entryDy=0;" edge="1" parent="1" source="UvH31Jiv-H99-9G_gPSF-41" target="UvH31Jiv-H99-9G_gPSF-36">
          <mxGeometry relative="1" as="geometry" />
        </mxCell>
        <mxCell id="UvH31Jiv-H99-9G_gPSF-46" style="edgeStyle=orthogonalEdgeStyle;rounded=0;orthogonalLoop=1;jettySize=auto;html=1;exitX=1;exitY=0.5;exitDx=0;exitDy=0;entryX=0;entryY=0.5;entryDx=0;entryDy=0;" edge="1" parent="1" source="UvH31Jiv-H99-9G_gPSF-41" target="UvH31Jiv-H99-9G_gPSF-34">
          <mxGeometry relative="1" as="geometry" />
        </mxCell>
        <mxCell id="UvH31Jiv-H99-9G_gPSF-47" value="YES" style="edgeLabel;html=1;align=center;verticalAlign=middle;resizable=0;points=[];" vertex="1" connectable="0" parent="UvH31Jiv-H99-9G_gPSF-46">
          <mxGeometry x="0.5867" y="3" relative="1" as="geometry">
            <mxPoint as="offset" />
          </mxGeometry>
        </mxCell>
        <mxCell id="UvH31Jiv-H99-9G_gPSF-41" value="PASS" style="rhombus;whiteSpace=wrap;html=1;fillColor=#fff2cc;strokeColor=#d6b656;" vertex="1" parent="1">
          <mxGeometry x="470" y="430" width="80" height="80" as="geometry" />
        </mxCell>
        <mxCell id="UvH31Jiv-H99-9G_gPSF-45" value="NO" style="text;html=1;align=center;verticalAlign=middle;resizable=0;points=[];autosize=1;strokeColor=none;fillColor=none;" vertex="1" parent="1">
          <mxGeometry x="480" y="395" width="40" height="30" as="geometry" />
        </mxCell>
        <mxCell id="UvH31Jiv-H99-9G_gPSF-54" style="edgeStyle=orthogonalEdgeStyle;rounded=0;orthogonalLoop=1;jettySize=auto;html=1;exitX=0;exitY=0.5;exitDx=0;exitDy=0;entryX=1;entryY=0.5;entryDx=0;entryDy=0;" edge="1" parent="1" source="UvH31Jiv-H99-9G_gPSF-52" target="UvH31Jiv-H99-9G_gPSF-36">
          <mxGeometry relative="1" as="geometry" />
        </mxCell>
        <mxCell id="UvH31Jiv-H99-9G_gPSF-55" value="NO" style="edgeLabel;html=1;align=center;verticalAlign=middle;resizable=0;points=[];" vertex="1" connectable="0" parent="UvH31Jiv-H99-9G_gPSF-54">
          <mxGeometry x="-0.3652" y="-4" relative="1" as="geometry">
            <mxPoint as="offset" />
          </mxGeometry>
        </mxCell>
        <mxCell id="UvH31Jiv-H99-9G_gPSF-56" style="edgeStyle=orthogonalEdgeStyle;rounded=0;orthogonalLoop=1;jettySize=auto;html=1;exitX=0.5;exitY=0;exitDx=0;exitDy=0;" edge="1" parent="1" source="UvH31Jiv-H99-9G_gPSF-52">
          <mxGeometry relative="1" as="geometry">
            <mxPoint x="730" y="200" as="targetPoint" />
          </mxGeometry>
        </mxCell>
        <mxCell id="UvH31Jiv-H99-9G_gPSF-52" value="PASS" style="rhombus;whiteSpace=wrap;html=1;fillColor=#fff2cc;strokeColor=#d6b656;" vertex="1" parent="1">
          <mxGeometry x="690" y="315" width="80" height="80" as="geometry" />
        </mxCell>
        <mxCell id="UvH31Jiv-H99-9G_gPSF-59" style="edgeStyle=orthogonalEdgeStyle;rounded=0;orthogonalLoop=1;jettySize=auto;html=1;exitX=0.5;exitY=0;exitDx=0;exitDy=0;entryX=0.75;entryY=0;entryDx=0;entryDy=0;" edge="1" parent="1" source="UvH31Jiv-H99-9G_gPSF-58" target="UvH31Jiv-H99-9G_gPSF-32">
          <mxGeometry relative="1" as="geometry" />
        </mxCell>
        <mxCell id="UvH31Jiv-H99-9G_gPSF-58" value="NEW DISTRO(STACK)" style="shape=hexagon;perimeter=hexagonPerimeter2;whiteSpace=wrap;html=1;fixedSize=1;fillColor=#008a00;strokeColor=#005700;fontColor=#ffffff;" vertex="1" parent="1">
          <mxGeometry x="670" y="120" width="120" height="80" as="geometry" />
        </mxCell>
      </root>
    </mxGraphModel>
  </diagram>
</mxfile>
